

==========================================
	Pre-Check Configurations
==========================================

File to be converted
--------------------
		Initializing File <strong>1612215824d2e0c.mp4</strong> and pre checking configurations...

System hardware Information
---------------------------
		Unable log System hardware information, plaese install "lshw" 

Temporary Uploading
-------------------
		File Uploaded to Temp directory successfully and video conversion file is being executed !

Video Conversion File Execution
-------------------------------
		Video Converson File executed successfully with Target File > !1612215824d2e0c.mp4


==========================================
	Starting Conversion Log
==========================================

Getting Arguments
-----------------
		Filename : 1612215824d2e0c.mp4
File directory : 2021/02/01
Log file : /var/www/vhosts/centx.app/httpdocs/files/logs/2021/02/01/1612215824d2e0c.log


Conversion queue
----------------
		Getting the file information from the queue for conversion

Conversion queue
----------------
		File has been moved from Temporary dir to Conversion Queue/var/www/vhosts/centx.app/httpdocs/files/temp/1612215824d2e0c.tmp Orig_ /var/www/vhosts/centx.app/httpdocs/files/conversion_queue/1612215824d2e0c.mp4

Parsing FFmpeg Configurations
-----------------------------
		<strong>use_video_rate</strong> : 1
<strong>use_video_bit_rate</strong> : 1
<strong>use_audio_rate</strong> : 1
<strong>use_audio_bit_rate</strong> : 1
<strong>use_audio_codec</strong> : 1
<strong>use_video_codec</strong> : 1
<strong>format</strong> : mp4
<strong>video_codec</strong> : libx264
<strong>audio_codec</strong> : libfdk_aac
<strong>audio_rate</strong> : 22050
<strong>audio_bitrate</strong> : 128000
<strong>video_rate</strong> : 
<strong>video_bitrate</strong> : 
<strong>video_bitrate_hd</strong> : 
<strong>normal_res</strong> : 
<strong>high_res</strong> : 
<strong>max_video_duration</strong> : 320
<strong>resize</strong> : max
<strong>outputPath</strong> : 2021/02/01/
<strong>cb_combo_res</strong> : 
<strong>gen_240</strong> : yes
<strong>gen_360</strong> : yes
<strong>gen_480</strong> : yes
<strong>gen_720</strong> : yes
<strong>gen_1080</strong> : yes


Starting Conversion
-------------------
		Started on 2021-02-01 21:43:49 - 2021 Feb 01

Checking File...
File : /var/www/vhosts/centx.app/httpdocs/files/conversion_queue/1612215824d2e0c.mp4

File Exists____video
--------------------
		Yes

Preparing file...
-----------------
		<strong>format</strong> : mov,mp4,m4a,3gp,3g2,mj2
<strong>duration</strong> : 44.63
<strong>size</strong> : 15134674
<strong>bitrate</strong> : 2713041
<strong>video_width</strong> : 1280
<strong>video_height</strong> : 720
<strong>video_wh_ratio</strong> : 1.7777777777778
<strong>video_codec</strong> : h264
<strong>video_rate</strong> : 23.976023976024
<strong>video_bitrate</strong> : 2710366
<strong>video_color</strong> : N/A
<strong>audio_codec</strong> : 
<strong>audio_bitrate</strong> : 0
<strong>audio_rate</strong> : 0
<strong>audio_channels</strong> : 0
<strong>path</strong> : /var/www/vhosts/centx.app/httpdocs/files/conversion_queue/1612215824d2e0c.mp4
<strong>rotation</strong> : 0


Thumbs Generation ____
----------------------
		Starting

Thumbs Files ____ /var/www/vhosts/centx.app/httpdocs/files/conversion_queue/1612215824d2e0c.mp4 Resolutions: 
-------------------------------------------------------------------------------------------------------------
		/var/www/vhosts/centx.app/httpdocs/files/conversion_queue/1612215824d2e0c.mp4

==========================================
	Video Conversionvideo
==========================================

Getting Video Details Array: 
-----------------------------
		<strong>size</strong> : 15134674
<strong>duration</strong> : 44
<strong>bitrate</strong> : 2687
<strong>format</strong> : mov,mp4,m4a,3gp,3g2,mj2
<strong>video_width</strong> : 1280
<strong>video_height</strong> : 720
<strong>video_wh_ratio</strong> : 1.7777777777778
<strong>video_codec</strong> : h264
<strong>audio_codec</strong> : 
<strong>audio_rate</strong> : 
<strong>audio_channels</strong> : 


Getting out : 
--------------
		ffmpeg version 3.4.8 Copyright (c) 2000-2020 the FFmpeg developers
  built with gcc 4.8.5 (GCC) 20150623 (Red Hat 4.8.5-39)
  configuration: --prefix=/usr --bindir=/usr/bin --datadir=/usr/share/ffmpeg --docdir=/usr/share/doc/ffmpeg --incdir=/usr/include/ffmpeg --libdir=/usr/lib64 --mandir=/usr/share/man --arch=x86_64 --optflags='-O2 -g -pipe -Wall -Wp,-D_FORTIFY_SOURCE=2 -fexceptions -fstack-protector-strong --param=ssp-buffer-size=4 -grecord-gcc-switches -m64 -mtune=generic' --extra-ldflags='-Wl,-z,relro ' --extra-cflags=' ' --enable-libopencore-amrnb --enable-libopencore-amrwb --enable-libvo-amrwbenc --enable-version3 --enable-bzlib --disable-crystalhd --enable-fontconfig --enable-gcrypt --enable-gnutls --enable-ladspa --enable-libass --enable-libbluray --enable-libcdio --enable-libdrm --enable-indev=jack --enable-libfreetype --enable-libfribidi --enable-libgsm --enable-libmp3lame --enable-nvenc --enable-openal --enable-opencl --enable-opengl --enable-libopenjpeg --enable-libopus --disable-encoder=libopus --enable-libpulse --enable-librsvg --enable-libsoxr --enable-libspeex --enable-libtheora --enable-libvorbis --enable-libv4l2 --enable-libvidstab --enable-libvpx --enable-libx264 --enable-libx265 --enable-libxvid --enable-libzvbi --enable-avfilter --enable-avresample --enable-libmodplug --enable-postproc --enable-pthreads --disable-static --enable-shared --enable-gpl --disable-debug --disable-stripping --shlibdir=/usr/lib64 --enable-libmfx --enable-runtime-cpudetect
  libavutil      55. 78.100 / 55. 78.100
  libavcodec     57.107.100 / 57.107.100
  libavformat    57. 83.100 / 57. 83.100
  libavdevice    57. 10.100 / 57. 10.100
  libavfilter     6.107.100 /  6.107.100
  libavresample   3.  7.  0 /  3.  7.  0
  libswscale      4.  8.100 /  4.  8.100
  libswresample   2.  9.100 /  2.  9.100
  libpostproc    54.  7.100 / 54.  7.100
Input #0, mov,mp4,m4a,3gp,3g2,mj2, from '/var/www/vhosts/centx.app/httpdocs/files/conversion_queue/1612215824d2e0c.mp4':
  Metadata:
    major_brand     : mp42
    minor_version   : 0
    compatible_brands: mp42mp41isomavc1
    creation_time   : 2020-07-20T12:15:22.000000Z
  Duration: 00:00:44.63, start: 0.000000, bitrate: 2713 kb/s
    Stream #0:0(und): Video: h264 (High) (avc1 / 0x31637661), yuv420p(tv, bt709), 1280x720, 2710 kb/s, 23.98 fps, 23.98 tbr, 24k tbn, 48k tbc (default)
    Metadata:
      creation_time   : 2020-07-20T12:15:22.000000Z
      handler_name    : L-SMASH Video Handler
      encoder         : AVC Coding
Output #0, null, to '/dev/null':
  Metadata:
    major_brand     : mp42
    minor_version   : 0
    compatible_brands: mp42mp41isomavc1
    encoder         : Lavf57.83.100
    Stream #0:0(und): Video: h264 (High) (avc1 / 0x31637661), yuv420p(tv, bt709), 1280x720, q=2-31, 2710 kb/s, 23.98 fps, 23.98 tbr, 24k tbn, 24k tbc (default)
    Metadata:
      creation_time   : 2020-07-20T12:15:22.000000Z
      handler_name    : L-SMASH Video Handler
      encoder         : AVC Coding
Stream mapping:
  Stream #0:0 -> #0:0 (copy)
Press [q] to stop, [?] for help
frame= 1070 fps=0.0 q=-1.0 Lsize=N/A time=00:00:44.50 bitrate=N/A speed=5.7e+03x    
video:14765kB audio:0kB subtitle:0kB other streams:0kB global headers:0kB muxing overhead: unknown


Low Resolution Full Command : 
------------------------------
		/bin/ffmpeg -i /var/www/vhosts/centx.app/httpdocs/files/conversion_queue/1612215824d2e0c.mp4 -vcodec libx264 -acodec libfdk_aac -s 1280x720 -preset medium -f mp4 -b:a 128000 -minrate 128000 -maxrate 128000 -ar 22050 /var/www/vhosts/centx.app/httpdocs/files/videos/2021/02/01//1612215824d2e0c-sd.mp4

Conversion Ouput
----------------
		
======Converting Video=========


=======Low Resolution Conversion=======


 Sarting : Generating Low resolution video @ 2021-02-01 21:43:54 

 Converting Video SD File  

 Command : /bin/ffmpeg -i /var/www/vhosts/centx.app/httpdocs/files/conversion_queue/1612215824d2e0c.mp4 -vcodec libx264 -acodec libfdk_aac -s 1280x720 -preset medium -f mp4 -b:a 128000 -minrate 128000 -maxrate 128000 -ar 22050 /var/www/vhosts/centx.app/httpdocs/files/videos/2021/02/01//1612215824d2e0c-sd.mp4 

 ffmpeg output : ffmpeg version 3.4.8 Copyright (c) 2000-2020 the FFmpeg developers
  built with gcc 4.8.5 (GCC) 20150623 (Red Hat 4.8.5-39)
  configuration: --prefix=/usr --bindir=/usr/bin --datadir=/usr/share/ffmpeg --docdir=/usr/share/doc/ffmpeg --incdir=/usr/include/ffmpeg --libdir=/usr/lib64 --mandir=/usr/share/man --arch=x86_64 --optflags='-O2 -g -pipe -Wall -Wp,-D_FORTIFY_SOURCE=2 -fexceptions -fstack-protector-strong --param=ssp-buffer-size=4 -grecord-gcc-switches -m64 -mtune=generic' --extra-ldflags='-Wl,-z,relro ' --extra-cflags=' ' --enable-libopencore-amrnb --enable-libopencore-amrwb --enable-libvo-amrwbenc --enable-version3 --enable-bzlib --disable-crystalhd --enable-fontconfig --enable-gcrypt --enable-gnutls --enable-ladspa --enable-libass --enable-libbluray --enable-libcdio --enable-libdrm --enable-indev=jack --enable-libfreetype --enable-libfribidi --enable-libgsm --enable-libmp3lame --enable-nvenc --enable-openal --enable-opencl --enable-opengl --enable-libopenjpeg --enable-libopus --disable-encoder=libopus --enable-libpulse --enable-librsvg --enable-libsoxr --enable-libspeex --enable-libtheora --enable-libvorbis --enable-libv4l2 --enable-libvidstab --enable-libvpx --enable-libx264 --enable-libx265 --enable-libxvid --enable-libzvbi --enable-avfilter --enable-avresample --enable-libmodplug --enable-postproc --enable-pthreads --disable-static --enable-shared --enable-gpl --disable-debug --disable-stripping --shlibdir=/usr/lib64 --enable-libmfx --enable-runtime-cpudetect
  libavutil      55. 78.100 / 55. 78.100
  libavcodec     57.107.100 / 57.107.100
  libavformat    57. 83.100 / 57. 83.100
  libavdevice    57. 10.100 / 57. 10.100
  libavfilter     6.107.100 /  6.107.100
  libavresample   3.  7.  0 /  3.  7.  0
  libswscale      4.  8.100 /  4.  8.100
  libswresample   2.  9.100 /  2.  9.100
  libpostproc    54.  7.100 / 54.  7.100
Input #0, mov,mp4,m4a,3gp,3g2,mj2, from '/var/www/vhosts/centx.app/httpdocs/files/conversion_queue/1612215824d2e0c.mp4':
  Metadata:
    major_brand     : mp42
    minor_version   : 0
    compatible_brands: mp42mp41isomavc1
    creation_time   : 2020-07-20T12:15:22.000000Z
  Duration: 00:00:44.63, start: 0.000000, bitrate: 2713 kb/s
    Stream #0:0(und): Video: h264 (High) (avc1 / 0x31637661), yuv420p(tv, bt709), 1280x720, 2710 kb/s, 23.98 fps, 23.98 tbr, 24k tbn, 48k tbc (default)
    Metadata:
      creation_time   : 2020-07-20T12:15:22.000000Z
      handler_name    : L-SMASH Video Handler
      encoder         : AVC Coding
Codec AVOption b (set bitrate (in bits/s)) specified for output file #0 (/var/www/vhosts/centx.app/httpdocs/files/videos/2021/02/01//1612215824d2e0c-sd.mp4) has not been used for any stream. The most likely reason is either wrong type (e.g. a video option with no video streams) or that it is a private option of some encoder which was not actually used for any stream.
Stream mapping:
  Stream #0:0 -> #0:0 (h264 (native) -> h264 (libx264))
Press [q] to stop, [?] for help
[libx264 @ 0x70fd60] VBV maxrate specified, but no bufsize, ignored
[libx264 @ 0x70fd60] using cpu capabilities: MMX2 SSE2Fast SSSE3 SSE4.2 AVX FMA3 AVX2 LZCNT BMI2
[libx264 @ 0x70fd60] profile High, level 3.1
[libx264 @ 0x70fd60] 264 - core 148 r2795 aaa9aa8 - H.264/MPEG-4 AVC codec - Copyleft 2003-2017 - http://www.videolan.org/x264.html - options: cabac=1 ref=3 deblock=1:0:0 analyse=0x3:0x113 me=hex subme=7 psy=1 psy_rd=1.00:0.00 mixed_ref=1 me_range=16 chroma_me=1 trellis=1 8x8dct=1 cqm=0 deadzone=21,11 fast_pskip=1 chroma_qp_offset=-2 threads=3 lookahead_threads=1 sliced_threads=0 nr=0 decimate=1 interlaced=0 bluray_compat=0 constrained_intra=0 bframes=3 b_pyramid=2 b_adapt=1 b_bias=0 direct=1 weightb=1 open_gop=0 weightp=2 keyint=250 keyint_min=23 scenecut=40 intra_refresh=0 rc_lookahead=40 rc=crf mbtree=1 crf=23.0 qcomp=0.60 qpmin=0 qpmax=69 qpstep=4 ip_ratio=1.40 aq=1:1.00
Output #0, mp4, to '/var/www/vhosts/centx.app/httpdocs/files/videos/2021/02/01//1612215824d2e0c-sd.mp4':
  Metadata:
    major_brand     : mp42
    minor_version   : 0
    compatible_brands: mp42mp41isomavc1
    encoder         : Lavf57.83.100
    Stream #0:0(und): Video: h264 (libx264) (avc1 / 0x31637661), yuv420p, 1280x720, q=-1--1, 23.98 fps, 24k tbn, 23.98 tbc (default)
    Metadata:
      creation_time   : 2020-07-20T12:15:22.000000Z
      handler_name    : L-SMASH Video Handler
      encoder         : Lavc57.107.100 libx264
    Side data:
      cpb: bitrate max/min/avg: 128000/0/0 buffer size: 0 vbv_delay: -1
frame=   49 fps=0.0 q=28.0 size=       0kB time=-00:00:00.04 bitrate=N/A speed=N/A    frame=   60 fps= 52 q=28.0 size=     256kB time=00:00:00.41 bitrate=5028.6kbits/s speed=0.361x    frame=   70 fps= 41 q=28.0 size=     256kB time=00:00:00.83 bitrate=2514.4kbits/s speed=0.484x    frame=   80 fps= 36 q=28.0 size=     256kB time=00:00:01.25 bitrate=1676.3kbits/s speed=0.562x    frame=   91 fps= 33 q=28.0 size=     512kB time=00:00:01.71 bitrate=2452.9kbits/s speed=0.628x    frame=  101 fps= 31 q=28.0 size=     512kB time=00:00:02.12 bitrate=1972.0kbits/s speed=0.657x    frame=  111 fps= 29 q=28.0 size=     768kB time=00:00:02.54 bitrate=2473.0kbits/s speed=0.675x    frame=  121 fps= 28 q=28.0 size=     768kB time=00:00:02.96 bitrate=2124.7kbits/s speed=0.691x    frame=  131 fps= 27 q=28.0 size=    1024kB time=00:00:03.37 bitrate=2483.1kbits/s speed=0.703x    frame=  142 fps= 26 q=28.0 size=    1024kB time=00:00:03.83 bitrate=2186.2kbits/s speed=0.714x    frame=  153 fps= 26 q=28.0 size=    1024kB time=00:00:04.29 bitrate=1952.7kbits/s speed=0.726x    frame=  164 fps= 25 q=28.0 size=    1280kB time=00:00:04.75 bitrate=2205.4kbits/s speed=0.731x    frame=  174 fps= 25 q=28.0 size=    1280kB time=00:00:05.17 bitrate=2027.5kbits/s speed=0.735x    frame=  185 fps= 24 q=28.0 size=    1280kB time=00:00:05.63 bitrate=1862.3kbits/s speed=0.745x    frame=  195 fps= 24 q=28.0 size=    1536kB time=00:00:06.04 bitrate=2080.7kbits/s speed=0.746x    frame=  205 fps= 24 q=28.0 size=    1536kB time=00:00:06.46 bitrate=1946.4kbits/s speed=0.742x    frame=  215 fps= 23 q=28.0 size=    1536kB time=00:00:06.88 bitrate=1828.5kbits/s speed=0.742x    frame=  224 fps= 23 q=28.0 size=    1792kB time=00:00:07.25 bitrate=2022.9kbits/s speed=0.742x    frame=  236 fps= 23 q=28.0 size=    1792kB time=00:00:07.75 bitrate=1892.3kbits/s speed=0.753x    frame=  246 fps= 23 q=28.0 size=    1792kB time=00:00:08.17 bitrate=1795.8kbits/s speed=0.754x    frame=  257 fps= 23 q=28.0 size=    1792kB time=00:00:08.63 bitrate=1700.4kbits/s speed=0.76x    frame=  266 fps= 22 q=28.0 size=    2048kB time=00:00:09.00 bitrate=1862.3kbits/s speed=0.759x    frame=  276 fps= 22 q=28.0 size=    2048kB time=00:00:09.42 bitrate=1779.9kbits/s speed=0.761x    frame=  288 fps= 22 q=28.0 size=    2048kB time=00:00:09.92 bitrate=1690.2kbits/s speed=0.765x    frame=  299 fps= 22 q=28.0 size=    2304kB time=00:00:10.38 bitrate=1817.4kbits/s speed=0.77x    frame=  310 fps= 22 q=28.0 size=    2560kB time=00:00:10.84 bitrate=1933.9kbits/s speed=0.773x    frame=  321 fps= 22 q=28.0 size=    2560kB time=00:00:11.30 bitrate=1855.4kbits/s speed=0.775x    frame=  333 fps= 22 q=28.0 size=    2560kB time=00:00:11.80 bitrate=1776.8kbits/s speed=0.778x    frame=  343 fps= 22 q=28.0 size=    2816kB time=00:00:12.22 bitrate=1887.7kbits/s speed=0.779x    frame=  352 fps= 22 q=28.0 size=    2816kB time=00:00:12.59 bitrate=1831.5kbits/s speed=0.778x    frame=  363 fps= 22 q=28.0 size=    2816kB time=00:00:13.05 bitrate=1767.1kbits/s speed=0.782x    frame=  374 fps= 22 q=28.0 size=    2816kB time=00:00:13.51 bitrate=1707.1kbits/s speed=0.784x    frame=  385 fps= 22 q=28.0 size=    3072kB time=00:00:13.97 bitrate=1801.1kbits/s speed=0.787x    frame=  397 fps= 22 q=28.0 size=    3072kB time=00:00:14.47 bitrate=1738.9kbits/s speed=0.79x    frame=  408 fps= 22 q=28.0 size=    3072kB time=00:00:14.93 bitrate=1685.4kbits/s speed=0.792x    frame=  418 fps= 21 q=28.0 size=    3328kB time=00:00:15.34 bitrate=1776.3kbits/s speed=0.789x    frame=  429 fps= 22 q=28.0 size=    3328kB time=00:00:15.80 bitrate=1724.7kbits/s speed=0.792x    frame=  440 fps= 21 q=28.0 size=    3584kB time=00:00:16.26 bitrate=1805.0kbits/s speed=0.795x    frame=  451 fps= 21 q=28.0 size=    3584kB time=00:00:16.72 bitrate=1755.5kbits/s speed=0.796x    frame=  463 fps= 21 q=28.0 size=    3840kB time=00:00:17.22 bitrate=1826.2kbits/s speed=0.799x    frame=  475 fps= 22 q=28.0 size=    3840kB time=00:00:17.72 bitrate=1774.7kbits/s speed=0.804x    frame=  485 fps= 21 q=28.0 size=    3840kB time=00:00:18.14 bitrate=1733.9kbits/s speed=0.804x    frame=  497 fps= 22 q=28.0 size=    4096kB time=00:00:18.64 bitrate=1799.8kbits/s speed=0.807x    frame=  509 fps= 21 q=28.0 size=    4096kB time=00:00:19.14 bitrate=1752.7kbits/s speed=0.808x    frame=  520 fps= 22 q=28.0 size=    4096kB time=00:00:19.60 bitrate=1711.7kbits/s speed=0.811x    frame=  532 fps= 21 q=28.0 size=    4352kB time=00:00:20.10 bitrate=1773.4kbits/s speed=0.812x    frame=  544 fps= 22 q=28.0 size=    4352kB time=00:00:20.60 bitrate=1730.3kbits/s speed=0.816x    frame=  556 fps= 22 q=28.0 size=    4608kB time=00:00:21.10 bitrate=1788.7kbits/s speed=0.819x    frame=  566 fps= 22 q=28.0 size=    4864kB time=00:00:21.52 bitrate=1851.5kbits/s speed=0.819x    frame=  577 fps= 22 q=28.0 size=    4864kB time=00:00:21.98 bitrate=1812.8kbits/s speed=0.819x    frame=  588 fps= 21 q=28.0 size=    4864kB time=00:00:22.43 bitrate=1775.7kbits/s speed=0.82x    frame=  600 fps= 22 q=28.0 size=    5120kB time=00:00:22.93 bitrate=1828.4kbits/s speed=0.823x    frame=  610 fps= 21 q=28.0 size=    5120kB time=00:00:23.35 bitrate=1795.8kbits/s speed=0.823x    frame=  622 fps= 22 q=28.0 size=    5120kB time=00:00:23.85 bitrate=1758.1kbits/s speed=0.826x    frame=  630 fps= 21 q=28.0 size=    5376kB time=00:00:24.19 bitrate=1820.5kbits/s speed=0.823x    frame=  640 fps= 21 q=28.0 size=    5376kB time=00:00:24.60 bitrate=1789.7kbits/s speed=0.823x    frame=  650 fps= 21 q=28.0 size=    5376kB time=00:00:25.02 bitrate=1759.9kbits/s speed=0.823x    frame=  660 fps= 21 q=28.0 size=    5632kB time=00:00:25.44 bitrate=1813.4kbits/s speed=0.822x    frame=  672 fps= 21 q=28.0 size=    5632kB time=00:00:25.94 bitrate=1778.5kbits/s speed=0.822x    frame=  683 fps= 21 q=28.0 size=    5888kB time=00:00:26.40 bitrate=1827.0kbits/s speed=0.824x    frame=  693 fps= 21 q=28.0 size=    5888kB time=00:00:26.81 bitrate=1798.6kbits/s speed=0.824x    frame=  704 fps= 21 q=28.0 size=    5888kB time=00:00:27.27 bitrate=1768.3kbits/s speed=0.823x    frame=  716 fps= 21 q=28.0 size=    5888kB time=00:00:27.77 bitrate=1736.5kbits/s speed=0.823x    frame=  727 fps= 21 q=28.0 size=    6144kB time=00:00:28.23 bitrate=1782.5kbits/s speed=0.824x    frame=  736 fps= 21 q=28.0 size=    6144kB time=00:00:28.61 bitrate=1759.1kbits/s speed=0.823x    frame=  748 fps= 21 q=28.0 size=    6144kB time=00:00:29.11 bitrate=1728.9kbits/s speed=0.824x    frame=  759 fps= 21 q=28.0 size=    6400kB time=00:00:29.57 bitrate=1773.0kbits/s speed=0.824x    frame=  770 fps= 21 q=28.0 size=    6400kB time=00:00:30.03 bitrate=1745.9kbits/s speed=0.826x    frame=  780 fps= 21 q=28.0 size=    6400kB time=00:00:30.44 bitrate=1722.0kbits/s speed=0.826x    frame=  789 fps= 21 q=28.0 size=    6656kB time=00:00:30.82 bitrate=1769.0kbits/s speed=0.825x    frame=  799 fps= 21 q=28.0 size=    6912kB time=00:00:31.23 bitrate=1812.6kbits/s speed=0.824x    frame=  810 fps= 21 q=28.0 size=    6912kB time=00:00:31.69 bitrate=1786.3kbits/s speed=0.825x    frame=  821 fps= 21 q=28.0 size=    6912kB time=00:00:32.15 bitrate=1760.8kbits/s speed=0.826x    frame=  831 fps= 21 q=28.0 size=    7168kB time=00:00:32.57 bitrate=1802.7kbits/s speed=0.826x    frame=  841 fps= 21 q=28.0 size=    7168kB time=00:00:32.99 bitrate=1779.9kbits/s speed=0.825x    frame=  851 fps= 21 q=28.0 size=    7424kB time=00:00:33.40 bitrate=1820.4kbits/s speed=0.825x    frame=  861 fps= 21 q=28.0 size=    7424kB time=00:00:33.82 bitrate=1798.0kbits/s speed=0.825x    frame=  870 fps= 21 q=28.0 size=    7680kB time=00:00:34.20 bitrate=1839.6kbits/s speed=0.823x    frame=  879 fps= 21 q=28.0 size=    7680kB time=00:00:34.57 bitrate=1819.6kbits/s speed=0.822x    frame=  889 fps= 21 q=28.0 size=    7680kB time=00:00:34.99 bitrate=1797.9kbits/s speed=0.821x    frame=  899 fps= 21 q=28.0 size=    7936kB time=00:00:35.41 bitrate=1836.0kbits/s speed=0.821x    frame=  911 fps= 21 q=28.0 size=    7936kB time=00:00:35.91 bitrate=1810.4kbits/s speed=0.822x    frame=  921 fps= 21 q=28.0 size=    8192kB time=00:00:36.32 bitrate=1847.3kbits/s speed=0.821x    frame=  932 fps= 21 q=28.0 size=    8192kB time=00:00:36.78 bitrate=1824.3kbits/s speed=0.822x    frame=  943 fps= 21 q=28.0 size=    8448kB time=00:00:37.24 bitrate=1858.1kbits/s speed=0.823x    frame=  954 fps= 21 q=28.0 size=    8448kB time=00:00:37.70 bitrate=1835.5kbits/s speed=0.824x    frame=  965 fps= 21 q=28.0 size=    8448kB time=00:00:38.16 bitrate=1813.4kbits/s speed=0.824x    frame=  978 fps= 21 q=28.0 size=    8704kB time=00:00:38.70 bitrate=1842.2kbits/s speed=0.827x    frame=  987 fps= 21 q=28.0 size=    8704kB time=00:00:39.08 bitrate=1824.5kbits/s speed=0.825x    frame= 1000 fps= 21 q=28.0 size=    8704kB time=00:00:39.62 bitrate=1799.6kbits/s speed=0.827x    frame= 1012 fps= 21 q=28.0 size=    8960kB time=00:00:40.12 bitrate=1829.4kbits/s speed=0.827x    frame= 1024 fps= 21 q=28.0 size=    8960kB time=00:00:40.62 bitrate=1806.8kbits/s speed=0.829x    frame= 1036 fps= 21 q=28.0 size=    8960kB time=00:00:41.12 bitrate=1784.8kbits/s speed=0.83x    frame= 1049 fps= 21 q=28.0 size=    9216kB time=00:00:41.66 bitrate=1811.9kbits/s speed=0.832x    frame= 1061 fps= 21 q=28.0 size=    9216kB time=00:00:42.16 bitrate=1790.4kbits/s speed=0.833x    frame= 1070 fps= 20 q=-1.0 Lsize=    9750kB time=00:00:44.50 bitrate=1794.8kbits/s speed=0.846x    
video:9737kB audio:0kB subtitle:0kB other streams:0kB global headers:0kB muxing overhead: 0.136343%
[libx264 @ 0x70fd60] frame I:5     Avg QP:18.37  size:187952
[libx264 @ 0x70fd60] frame P:388   Avg QP:20.90  size: 19630
[libx264 @ 0x70fd60] frame B:677   Avg QP:26.29  size:  2088
[libx264 @ 0x70fd60] consecutive B-frames:  2.7% 36.6%  6.4% 54.2%
[libx264 @ 0x70fd60] mb I  I16..4:  2.9% 67.8% 29.3%
[libx264 @ 0x70fd60] mb P  I16..4:  0.2%  1.0%  0.1%  P16..4: 47.6% 13.3% 11.2%  0.0%  0.0%    skip:26.6%
[libx264 @ 0x70fd60] mb B  I16..4:  0.0%  0.1%  0.0%  B16..8: 26.7%  1.1%  0.5%  direct: 0.7%  skip:71.0%  L0:33.6% L1:63.4% BI: 2.9%
[libx264 @ 0x70fd60] 8x8 transform intra:72.1% inter:64.2%
[libx264 @ 0x70fd60] coded y,uvDC,uvAC intra: 82.7% 78.9% 48.1% inter: 13.7% 14.5% 0.7%
[libx264 @ 0x70fd60] i16 v,h,dc,p:  8% 16% 14% 61%
[libx264 @ 0x70fd60] i8 v,h,dc,ddl,ddr,vr,hd,vl,hu: 12% 19% 16%  5% 10%  9% 12%  7% 10%
[libx264 @ 0x70fd60] i4 v,h,dc,ddl,ddr,vr,hd,vl,hu: 13% 17% 12%  8% 10% 10% 11%  8% 11%
[libx264 @ 0x70fd60] i8c dc,h,v,p: 51% 27% 15%  7%
[libx264 @ 0x70fd60] Weighted P-Frames: Y:3.4% UV:1.8%
[libx264 @ 0x70fd60] ref P L0: 65.1% 20.9% 10.7%  3.2%  0.1%
[libx264 @ 0x70fd60] ref B L0: 90.7%  7.4%  1.9%
[libx264 @ 0x70fd60] ref B L1: 95.9%  4.1%
[libx264 @ 0x70fd60] kb/s:1787.17
 

 outputFile : /var/www/vhosts/centx.app/httpdocs/files/videos/2021/02/01//1612215824d2e0c-sd.mp4 

 Sarting : MP4Box Conversion for SD 

 MP4Box Command : /usr/bin/MP4Box -inter 0.5 /var/www/vhosts/centx.app/httpdocs/files/videos/2021/02/01//1612215824d2e0c-sd.mp4  -tmp /var/www/vhosts/centx.app/httpdocs/files/temp 

 output : Saving /var/www/vhosts/centx.app/httpdocs/files/videos/2021/02/01//1612215824d2e0c-sd.mp4: 0.001 secs Interleaving
ISO File Writing: |                    | (01/100)ISO File Writing: |                    | (02/100)ISO File Writing: |                    | (03/100)ISO File Writing: |                    | (04/100)ISO File Writing: |=                   | (05/100)ISO File Writing: |=                   | (06/100)ISO File Writing: |=                   | (07/100)ISO File Writing: |=                   | (08/100)ISO File Writing: |=                   | (09/100)ISO File Writing: |==                  | (10/100)ISO File Writing: |==                  | (11/100)ISO File Writing: |==                  | (12/100)ISO File Writing: |==                  | (13/100)ISO File Writing: |==                  | (14/100)ISO File Writing: |===                 | (15/100)ISO File Writing: |===                 | (16/100)ISO File Writing: |===                 | (17/100)ISO File Writing: |===                 | (18/100)ISO File Writing: |===                 | (19/100)ISO File Writing: |====                | (20/100)ISO File Writing: |====                | (21/100)ISO File Writing: |====                | (22/100)ISO File Writing: |====                | (23/100)ISO File Writing: |====                | (24/100)ISO File Writing: |=====               | (25/100)ISO File Writing: |=====               | (26/100)ISO File Writing: |=====               | (27/100)ISO File Writing: |=====               | (28/100)ISO File Writing: |=====               | (29/100)ISO File Writing: |======              | (30/100)ISO File Writing: |======              | (31/100)ISO File Writing: |======              | (32/100)ISO File Writing: |======              | (33/100)ISO File Writing: |======              | (34/100)ISO File Writing: |=======             | (35/100)ISO File Writing: |=======             | (36/100)ISO File Writing: |=======             | (37/100)ISO File Writing: |=======             | (38/100)ISO File Writing: |=======             | (39/100)ISO File Writing: |========            | (40/100)ISO File Writing: |========            | (41/100)ISO File Writing: |========            | (42/100)ISO File Writing: |========            | (43/100)ISO File Writing: |========            | (44/100)ISO File Writing: |=========           | (45/100)ISO File Writing: |=========           | (46/100)ISO File Writing: |=========           | (47/100)ISO File Writing: |=========           | (48/100)ISO File Writing: |=========           | (49/100)ISO File Writing: |==========          | (50/100)ISO File Writing: |==========          | (51/100)ISO File Writing: |==========          | (52/100)ISO File Writing: |==========          | (53/100)ISO File Writing: |==========          | (54/100)ISO File Writing: |===========         | (55/100)ISO File Writing: |===========         | (56/100)ISO File Writing: |===========         | (57/100)ISO File Writing: |===========         | (58/100)ISO File Writing: |===========         | (59/100)ISO File Writing: |============        | (60/100)ISO File Writing: |============        | (61/100)ISO File Writing: |============        | (62/100)ISO File Writing: |============        | (63/100)ISO File Writing: |============        | (64/100)ISO File Writing: |=============       | (65/100)ISO File Writing: |=============       | (66/100)ISO File Writing: |=============       | (67/100)ISO File Writing: |=============       | (68/100)ISO File Writing: |=============       | (69/100)ISO File Writing: |==============      | (70/100)ISO File Writing: |==============      | (71/100)ISO File Writing: |==============      | (72/100)ISO File Writing: |==============      | (73/100)ISO File Writing: |==============      | (74/100)ISO File Writing: |===============     | (75/100)ISO File Writing: |===============     | (76/100)ISO File Writing: |===============     | (77/100)ISO File Writing: |===============     | (78/100)ISO File Writing: |===============     | (79/100)ISO File Writing: |================    | (80/100)ISO File Writing: |================    | (81/100)ISO File Writing: |================    | (82/100)ISO File Writing: |================    | (83/100)ISO File Writing: |================    | (84/100)ISO File Writing: |=================   | (85/100)ISO File Writing: |=================   | (86/100)ISO File Writing: |=================   | (87/100)ISO File Writing: |=================   | (88/100)ISO File Writing: |=================   | (89/100)ISO File Writing: |==================  | (90/100)ISO File Writing: |==================  | (91/100)ISO File Writing: |==================  | (92/100)ISO File Writing: |==================  | (93/100)ISO File Writing: |==================  | (94/100)ISO File Writing: |=================== | (95/100)ISO File Writing: |=================== | (96/100)ISO File Writing: |=================== | (97/100)ISO File Writing: |=================== | (98/100)ISO File Writing: |=================== | (99/100)ISO File Writing: |====================| (100/100)                                                         

 Conversion Status : Successful @ 2021-02-01 21:44:47 


OutPut Deatils
--------------
		<strong>format</strong> : mov,mp4,m4a,3gp,3g2,mj2
<strong>duration</strong> : 44.63
<strong>size</strong> : 9984126
<strong>bitrate</strong> : 1789751
<strong>video_width</strong> : 1280
<strong>video_height</strong> : 720
<strong>video_wh_ratio</strong> : 1.7777777777778
<strong>video_codec</strong> : h264
<strong>video_rate</strong> : 23.976023976024
<strong>video_bitrate</strong> : 1787295
<strong>video_color</strong> : N/A
<strong>audio_codec</strong> : 
<strong>audio_bitrate</strong> : 0
<strong>audio_rate</strong> : 0
<strong>audio_channels</strong> : 0
<strong>path</strong> : /var/www/vhosts/centx.app/httpdocs/files/videos/2021/02/01//1612215824d2e0c-sd.mp4
<strong>rotation</strong> : 0


Conversion Ouput
----------------
		
======Converting Video=========


=======Low Resolution Conversion=======


 Sarting : Generating Low resolution video @ 2021-02-01 21:43:54 

 Converting Video SD File  

 Command : /bin/ffmpeg -i /var/www/vhosts/centx.app/httpdocs/files/conversion_queue/1612215824d2e0c.mp4 -vcodec libx264 -acodec libfdk_aac -s 1280x720 -preset medium -f mp4 -b:a 128000 -minrate 128000 -maxrate 128000 -ar 22050 /var/www/vhosts/centx.app/httpdocs/files/videos/2021/02/01//1612215824d2e0c-sd.mp4 

 ffmpeg output : ffmpeg version 3.4.8 Copyright (c) 2000-2020 the FFmpeg developers
  built with gcc 4.8.5 (GCC) 20150623 (Red Hat 4.8.5-39)
  configuration: --prefix=/usr --bindir=/usr/bin --datadir=/usr/share/ffmpeg --docdir=/usr/share/doc/ffmpeg --incdir=/usr/include/ffmpeg --libdir=/usr/lib64 --mandir=/usr/share/man --arch=x86_64 --optflags='-O2 -g -pipe -Wall -Wp,-D_FORTIFY_SOURCE=2 -fexceptions -fstack-protector-strong --param=ssp-buffer-size=4 -grecord-gcc-switches -m64 -mtune=generic' --extra-ldflags='-Wl,-z,relro ' --extra-cflags=' ' --enable-libopencore-amrnb --enable-libopencore-amrwb --enable-libvo-amrwbenc --enable-version3 --enable-bzlib --disable-crystalhd --enable-fontconfig --enable-gcrypt --enable-gnutls --enable-ladspa --enable-libass --enable-libbluray --enable-libcdio --enable-libdrm --enable-indev=jack --enable-libfreetype --enable-libfribidi --enable-libgsm --enable-libmp3lame --enable-nvenc --enable-openal --enable-opencl --enable-opengl --enable-libopenjpeg --enable-libopus --disable-encoder=libopus --enable-libpulse --enable-librsvg --enable-libsoxr --enable-libspeex --enable-libtheora --enable-libvorbis --enable-libv4l2 --enable-libvidstab --enable-libvpx --enable-libx264 --enable-libx265 --enable-libxvid --enable-libzvbi --enable-avfilter --enable-avresample --enable-libmodplug --enable-postproc --enable-pthreads --disable-static --enable-shared --enable-gpl --disable-debug --disable-stripping --shlibdir=/usr/lib64 --enable-libmfx --enable-runtime-cpudetect
  libavutil      55. 78.100 / 55. 78.100
  libavcodec     57.107.100 / 57.107.100
  libavformat    57. 83.100 / 57. 83.100
  libavdevice    57. 10.100 / 57. 10.100
  libavfilter     6.107.100 /  6.107.100
  libavresample   3.  7.  0 /  3.  7.  0
  libswscale      4.  8.100 /  4.  8.100
  libswresample   2.  9.100 /  2.  9.100
  libpostproc    54.  7.100 / 54.  7.100
Input #0, mov,mp4,m4a,3gp,3g2,mj2, from '/var/www/vhosts/centx.app/httpdocs/files/conversion_queue/1612215824d2e0c.mp4':
  Metadata:
    major_brand     : mp42
    minor_version   : 0
    compatible_brands: mp42mp41isomavc1
    creation_time   : 2020-07-20T12:15:22.000000Z
  Duration: 00:00:44.63, start: 0.000000, bitrate: 2713 kb/s
    Stream #0:0(und): Video: h264 (High) (avc1 / 0x31637661), yuv420p(tv, bt709), 1280x720, 2710 kb/s, 23.98 fps, 23.98 tbr, 24k tbn, 48k tbc (default)
    Metadata:
      creation_time   : 2020-07-20T12:15:22.000000Z
      handler_name    : L-SMASH Video Handler
      encoder         : AVC Coding
Codec AVOption b (set bitrate (in bits/s)) specified for output file #0 (/var/www/vhosts/centx.app/httpdocs/files/videos/2021/02/01//1612215824d2e0c-sd.mp4) has not been used for any stream. The most likely reason is either wrong type (e.g. a video option with no video streams) or that it is a private option of some encoder which was not actually used for any stream.
Stream mapping:
  Stream #0:0 -> #0:0 (h264 (native) -> h264 (libx264))
Press [q] to stop, [?] for help
[libx264 @ 0x70fd60] VBV maxrate specified, but no bufsize, ignored
[libx264 @ 0x70fd60] using cpu capabilities: MMX2 SSE2Fast SSSE3 SSE4.2 AVX FMA3 AVX2 LZCNT BMI2
[libx264 @ 0x70fd60] profile High, level 3.1
[libx264 @ 0x70fd60] 264 - core 148 r2795 aaa9aa8 - H.264/MPEG-4 AVC codec - Copyleft 2003-2017 - http://www.videolan.org/x264.html - options: cabac=1 ref=3 deblock=1:0:0 analyse=0x3:0x113 me=hex subme=7 psy=1 psy_rd=1.00:0.00 mixed_ref=1 me_range=16 chroma_me=1 trellis=1 8x8dct=1 cqm=0 deadzone=21,11 fast_pskip=1 chroma_qp_offset=-2 threads=3 lookahead_threads=1 sliced_threads=0 nr=0 decimate=1 interlaced=0 bluray_compat=0 constrained_intra=0 bframes=3 b_pyramid=2 b_adapt=1 b_bias=0 direct=1 weightb=1 open_gop=0 weightp=2 keyint=250 keyint_min=23 scenecut=40 intra_refresh=0 rc_lookahead=40 rc=crf mbtree=1 crf=23.0 qcomp=0.60 qpmin=0 qpmax=69 qpstep=4 ip_ratio=1.40 aq=1:1.00
Output #0, mp4, to '/var/www/vhosts/centx.app/httpdocs/files/videos/2021/02/01//1612215824d2e0c-sd.mp4':
  Metadata:
    major_brand     : mp42
    minor_version   : 0
    compatible_brands: mp42mp41isomavc1
    encoder         : Lavf57.83.100
    Stream #0:0(und): Video: h264 (libx264) (avc1 / 0x31637661), yuv420p, 1280x720, q=-1--1, 23.98 fps, 24k tbn, 23.98 tbc (default)
    Metadata:
      creation_time   : 2020-07-20T12:15:22.000000Z
      handler_name    : L-SMASH Video Handler
      encoder         : Lavc57.107.100 libx264
    Side data:
      cpb: bitrate max/min/avg: 128000/0/0 buffer size: 0 vbv_delay: -1
frame=   49 fps=0.0 q=28.0 size=       0kB time=-00:00:00.04 bitrate=N/A speed=N/A    frame=   60 fps= 52 q=28.0 size=     256kB time=00:00:00.41 bitrate=5028.6kbits/s speed=0.361x    frame=   70 fps= 41 q=28.0 size=     256kB time=00:00:00.83 bitrate=2514.4kbits/s speed=0.484x    frame=   80 fps= 36 q=28.0 size=     256kB time=00:00:01.25 bitrate=1676.3kbits/s speed=0.562x    frame=   91 fps= 33 q=28.0 size=     512kB time=00:00:01.71 bitrate=2452.9kbits/s speed=0.628x    frame=  101 fps= 31 q=28.0 size=     512kB time=00:00:02.12 bitrate=1972.0kbits/s speed=0.657x    frame=  111 fps= 29 q=28.0 size=     768kB time=00:00:02.54 bitrate=2473.0kbits/s speed=0.675x    frame=  121 fps= 28 q=28.0 size=     768kB time=00:00:02.96 bitrate=2124.7kbits/s speed=0.691x    frame=  131 fps= 27 q=28.0 size=    1024kB time=00:00:03.37 bitrate=2483.1kbits/s speed=0.703x    frame=  142 fps= 26 q=28.0 size=    1024kB time=00:00:03.83 bitrate=2186.2kbits/s speed=0.714x    frame=  153 fps= 26 q=28.0 size=    1024kB time=00:00:04.29 bitrate=1952.7kbits/s speed=0.726x    frame=  164 fps= 25 q=28.0 size=    1280kB time=00:00:04.75 bitrate=2205.4kbits/s speed=0.731x    frame=  174 fps= 25 q=28.0 size=    1280kB time=00:00:05.17 bitrate=2027.5kbits/s speed=0.735x    frame=  185 fps= 24 q=28.0 size=    1280kB time=00:00:05.63 bitrate=1862.3kbits/s speed=0.745x    frame=  195 fps= 24 q=28.0 size=    1536kB time=00:00:06.04 bitrate=2080.7kbits/s speed=0.746x    frame=  205 fps= 24 q=28.0 size=    1536kB time=00:00:06.46 bitrate=1946.4kbits/s speed=0.742x    frame=  215 fps= 23 q=28.0 size=    1536kB time=00:00:06.88 bitrate=1828.5kbits/s speed=0.742x    frame=  224 fps= 23 q=28.0 size=    1792kB time=00:00:07.25 bitrate=2022.9kbits/s speed=0.742x    frame=  236 fps= 23 q=28.0 size=    1792kB time=00:00:07.75 bitrate=1892.3kbits/s speed=0.753x    frame=  246 fps= 23 q=28.0 size=    1792kB time=00:00:08.17 bitrate=1795.8kbits/s speed=0.754x    frame=  257 fps= 23 q=28.0 size=    1792kB time=00:00:08.63 bitrate=1700.4kbits/s speed=0.76x    frame=  266 fps= 22 q=28.0 size=    2048kB time=00:00:09.00 bitrate=1862.3kbits/s speed=0.759x    frame=  276 fps= 22 q=28.0 size=    2048kB time=00:00:09.42 bitrate=1779.9kbits/s speed=0.761x    frame=  288 fps= 22 q=28.0 size=    2048kB time=00:00:09.92 bitrate=1690.2kbits/s speed=0.765x    frame=  299 fps= 22 q=28.0 size=    2304kB time=00:00:10.38 bitrate=1817.4kbits/s speed=0.77x    frame=  310 fps= 22 q=28.0 size=    2560kB time=00:00:10.84 bitrate=1933.9kbits/s speed=0.773x    frame=  321 fps= 22 q=28.0 size=    2560kB time=00:00:11.30 bitrate=1855.4kbits/s speed=0.775x    frame=  333 fps= 22 q=28.0 size=    2560kB time=00:00:11.80 bitrate=1776.8kbits/s speed=0.778x    frame=  343 fps= 22 q=28.0 size=    2816kB time=00:00:12.22 bitrate=1887.7kbits/s speed=0.779x    frame=  352 fps= 22 q=28.0 size=    2816kB time=00:00:12.59 bitrate=1831.5kbits/s speed=0.778x    frame=  363 fps= 22 q=28.0 size=    2816kB time=00:00:13.05 bitrate=1767.1kbits/s speed=0.782x    frame=  374 fps= 22 q=28.0 size=    2816kB time=00:00:13.51 bitrate=1707.1kbits/s speed=0.784x    frame=  385 fps= 22 q=28.0 size=    3072kB time=00:00:13.97 bitrate=1801.1kbits/s speed=0.787x    frame=  397 fps= 22 q=28.0 size=    3072kB time=00:00:14.47 bitrate=1738.9kbits/s speed=0.79x    frame=  408 fps= 22 q=28.0 size=    3072kB time=00:00:14.93 bitrate=1685.4kbits/s speed=0.792x    frame=  418 fps= 21 q=28.0 size=    3328kB time=00:00:15.34 bitrate=1776.3kbits/s speed=0.789x    frame=  429 fps= 22 q=28.0 size=    3328kB time=00:00:15.80 bitrate=1724.7kbits/s speed=0.792x    frame=  440 fps= 21 q=28.0 size=    3584kB time=00:00:16.26 bitrate=1805.0kbits/s speed=0.795x    frame=  451 fps= 21 q=28.0 size=    3584kB time=00:00:16.72 bitrate=1755.5kbits/s speed=0.796x    frame=  463 fps= 21 q=28.0 size=    3840kB time=00:00:17.22 bitrate=1826.2kbits/s speed=0.799x    frame=  475 fps= 22 q=28.0 size=    3840kB time=00:00:17.72 bitrate=1774.7kbits/s speed=0.804x    frame=  485 fps= 21 q=28.0 size=    3840kB time=00:00:18.14 bitrate=1733.9kbits/s speed=0.804x    frame=  497 fps= 22 q=28.0 size=    4096kB time=00:00:18.64 bitrate=1799.8kbits/s speed=0.807x    frame=  509 fps= 21 q=28.0 size=    4096kB time=00:00:19.14 bitrate=1752.7kbits/s speed=0.808x    frame=  520 fps= 22 q=28.0 size=    4096kB time=00:00:19.60 bitrate=1711.7kbits/s speed=0.811x    frame=  532 fps= 21 q=28.0 size=    4352kB time=00:00:20.10 bitrate=1773.4kbits/s speed=0.812x    frame=  544 fps= 22 q=28.0 size=    4352kB time=00:00:20.60 bitrate=1730.3kbits/s speed=0.816x    frame=  556 fps= 22 q=28.0 size=    4608kB time=00:00:21.10 bitrate=1788.7kbits/s speed=0.819x    frame=  566 fps= 22 q=28.0 size=    4864kB time=00:00:21.52 bitrate=1851.5kbits/s speed=0.819x    frame=  577 fps= 22 q=28.0 size=    4864kB time=00:00:21.98 bitrate=1812.8kbits/s speed=0.819x    frame=  588 fps= 21 q=28.0 size=    4864kB time=00:00:22.43 bitrate=1775.7kbits/s speed=0.82x    frame=  600 fps= 22 q=28.0 size=    5120kB time=00:00:22.93 bitrate=1828.4kbits/s speed=0.823x    frame=  610 fps= 21 q=28.0 size=    5120kB time=00:00:23.35 bitrate=1795.8kbits/s speed=0.823x    frame=  622 fps= 22 q=28.0 size=    5120kB time=00:00:23.85 bitrate=1758.1kbits/s speed=0.826x    frame=  630 fps= 21 q=28.0 size=    5376kB time=00:00:24.19 bitrate=1820.5kbits/s speed=0.823x    frame=  640 fps= 21 q=28.0 size=    5376kB time=00:00:24.60 bitrate=1789.7kbits/s speed=0.823x    frame=  650 fps= 21 q=28.0 size=    5376kB time=00:00:25.02 bitrate=1759.9kbits/s speed=0.823x    frame=  660 fps= 21 q=28.0 size=    5632kB time=00:00:25.44 bitrate=1813.4kbits/s speed=0.822x    frame=  672 fps= 21 q=28.0 size=    5632kB time=00:00:25.94 bitrate=1778.5kbits/s speed=0.822x    frame=  683 fps= 21 q=28.0 size=    5888kB time=00:00:26.40 bitrate=1827.0kbits/s speed=0.824x    frame=  693 fps= 21 q=28.0 size=    5888kB time=00:00:26.81 bitrate=1798.6kbits/s speed=0.824x    frame=  704 fps= 21 q=28.0 size=    5888kB time=00:00:27.27 bitrate=1768.3kbits/s speed=0.823x    frame=  716 fps= 21 q=28.0 size=    5888kB time=00:00:27.77 bitrate=1736.5kbits/s speed=0.823x    frame=  727 fps= 21 q=28.0 size=    6144kB time=00:00:28.23 bitrate=1782.5kbits/s speed=0.824x    frame=  736 fps= 21 q=28.0 size=    6144kB time=00:00:28.61 bitrate=1759.1kbits/s speed=0.823x    frame=  748 fps= 21 q=28.0 size=    6144kB time=00:00:29.11 bitrate=1728.9kbits/s speed=0.824x    frame=  759 fps= 21 q=28.0 size=    6400kB time=00:00:29.57 bitrate=1773.0kbits/s speed=0.824x    frame=  770 fps= 21 q=28.0 size=    6400kB time=00:00:30.03 bitrate=1745.9kbits/s speed=0.826x    frame=  780 fps= 21 q=28.0 size=    6400kB time=00:00:30.44 bitrate=1722.0kbits/s speed=0.826x    frame=  789 fps= 21 q=28.0 size=    6656kB time=00:00:30.82 bitrate=1769.0kbits/s speed=0.825x    frame=  799 fps= 21 q=28.0 size=    6912kB time=00:00:31.23 bitrate=1812.6kbits/s speed=0.824x    frame=  810 fps= 21 q=28.0 size=    6912kB time=00:00:31.69 bitrate=1786.3kbits/s speed=0.825x    frame=  821 fps= 21 q=28.0 size=    6912kB time=00:00:32.15 bitrate=1760.8kbits/s speed=0.826x    frame=  831 fps= 21 q=28.0 size=    7168kB time=00:00:32.57 bitrate=1802.7kbits/s speed=0.826x    frame=  841 fps= 21 q=28.0 size=    7168kB time=00:00:32.99 bitrate=1779.9kbits/s speed=0.825x    frame=  851 fps= 21 q=28.0 size=    7424kB time=00:00:33.40 bitrate=1820.4kbits/s speed=0.825x    frame=  861 fps= 21 q=28.0 size=    7424kB time=00:00:33.82 bitrate=1798.0kbits/s speed=0.825x    frame=  870 fps= 21 q=28.0 size=    7680kB time=00:00:34.20 bitrate=1839.6kbits/s speed=0.823x    frame=  879 fps= 21 q=28.0 size=    7680kB time=00:00:34.57 bitrate=1819.6kbits/s speed=0.822x    frame=  889 fps= 21 q=28.0 size=    7680kB time=00:00:34.99 bitrate=1797.9kbits/s speed=0.821x    frame=  899 fps= 21 q=28.0 size=    7936kB time=00:00:35.41 bitrate=1836.0kbits/s speed=0.821x    frame=  911 fps= 21 q=28.0 size=    7936kB time=00:00:35.91 bitrate=1810.4kbits/s speed=0.822x    frame=  921 fps= 21 q=28.0 size=    8192kB time=00:00:36.32 bitrate=1847.3kbits/s speed=0.821x    frame=  932 fps= 21 q=28.0 size=    8192kB time=00:00:36.78 bitrate=1824.3kbits/s speed=0.822x    frame=  943 fps= 21 q=28.0 size=    8448kB time=00:00:37.24 bitrate=1858.1kbits/s speed=0.823x    frame=  954 fps= 21 q=28.0 size=    8448kB time=00:00:37.70 bitrate=1835.5kbits/s speed=0.824x    frame=  965 fps= 21 q=28.0 size=    8448kB time=00:00:38.16 bitrate=1813.4kbits/s speed=0.824x    frame=  978 fps= 21 q=28.0 size=    8704kB time=00:00:38.70 bitrate=1842.2kbits/s speed=0.827x    frame=  987 fps= 21 q=28.0 size=    8704kB time=00:00:39.08 bitrate=1824.5kbits/s speed=0.825x    frame= 1000 fps= 21 q=28.0 size=    8704kB time=00:00:39.62 bitrate=1799.6kbits/s speed=0.827x    frame= 1012 fps= 21 q=28.0 size=    8960kB time=00:00:40.12 bitrate=1829.4kbits/s speed=0.827x    frame= 1024 fps= 21 q=28.0 size=    8960kB time=00:00:40.62 bitrate=1806.8kbits/s speed=0.829x    frame= 1036 fps= 21 q=28.0 size=    8960kB time=00:00:41.12 bitrate=1784.8kbits/s speed=0.83x    frame= 1049 fps= 21 q=28.0 size=    9216kB time=00:00:41.66 bitrate=1811.9kbits/s speed=0.832x    frame= 1061 fps= 21 q=28.0 size=    9216kB time=00:00:42.16 bitrate=1790.4kbits/s speed=0.833x    frame= 1070 fps= 20 q=-1.0 Lsize=    9750kB time=00:00:44.50 bitrate=1794.8kbits/s speed=0.846x    
video:9737kB audio:0kB subtitle:0kB other streams:0kB global headers:0kB muxing overhead: 0.136343%
[libx264 @ 0x70fd60] frame I:5     Avg QP:18.37  size:187952
[libx264 @ 0x70fd60] frame P:388   Avg QP:20.90  size: 19630
[libx264 @ 0x70fd60] frame B:677   Avg QP:26.29  size:  2088
[libx264 @ 0x70fd60] consecutive B-frames:  2.7% 36.6%  6.4% 54.2%
[libx264 @ 0x70fd60] mb I  I16..4:  2.9% 67.8% 29.3%
[libx264 @ 0x70fd60] mb P  I16..4:  0.2%  1.0%  0.1%  P16..4: 47.6% 13.3% 11.2%  0.0%  0.0%    skip:26.6%
[libx264 @ 0x70fd60] mb B  I16..4:  0.0%  0.1%  0.0%  B16..8: 26.7%  1.1%  0.5%  direct: 0.7%  skip:71.0%  L0:33.6% L1:63.4% BI: 2.9%
[libx264 @ 0x70fd60] 8x8 transform intra:72.1% inter:64.2%
[libx264 @ 0x70fd60] coded y,uvDC,uvAC intra: 82.7% 78.9% 48.1% inter: 13.7% 14.5% 0.7%
[libx264 @ 0x70fd60] i16 v,h,dc,p:  8% 16% 14% 61%
[libx264 @ 0x70fd60] i8 v,h,dc,ddl,ddr,vr,hd,vl,hu: 12% 19% 16%  5% 10%  9% 12%  7% 10%
[libx264 @ 0x70fd60] i4 v,h,dc,ddl,ddr,vr,hd,vl,hu: 13% 17% 12%  8% 10% 10% 11%  8% 11%
[libx264 @ 0x70fd60] i8c dc,h,v,p: 51% 27% 15%  7%
[libx264 @ 0x70fd60] Weighted P-Frames: Y:3.4% UV:1.8%
[libx264 @ 0x70fd60] ref P L0: 65.1% 20.9% 10.7%  3.2%  0.1%
[libx264 @ 0x70fd60] ref B L0: 90.7%  7.4%  1.9%
[libx264 @ 0x70fd60] ref B L1: 95.9%  4.1%
[libx264 @ 0x70fd60] kb/s:1787.17
 

 outputFile : /var/www/vhosts/centx.app/httpdocs/files/videos/2021/02/01//1612215824d2e0c-sd.mp4 

 Sarting : MP4Box Conversion for SD 

 MP4Box Command : /usr/bin/MP4Box -inter 0.5 /var/www/vhosts/centx.app/httpdocs/files/videos/2021/02/01//1612215824d2e0c-sd.mp4  -tmp /var/www/vhosts/centx.app/httpdocs/files/temp 

 output : Saving /var/www/vhosts/centx.app/httpdocs/files/videos/2021/02/01//1612215824d2e0c-sd.mp4: 0.001 secs Interleaving
ISO File Writing: |                    | (01/100)ISO File Writing: |                    | (02/100)ISO File Writing: |                    | (03/100)ISO File Writing: |                    | (04/100)ISO File Writing: |=                   | (05/100)ISO File Writing: |=                   | (06/100)ISO File Writing: |=                   | (07/100)ISO File Writing: |=                   | (08/100)ISO File Writing: |=                   | (09/100)ISO File Writing: |==                  | (10/100)ISO File Writing: |==                  | (11/100)ISO File Writing: |==                  | (12/100)ISO File Writing: |==                  | (13/100)ISO File Writing: |==                  | (14/100)ISO File Writing: |===                 | (15/100)ISO File Writing: |===                 | (16/100)ISO File Writing: |===                 | (17/100)ISO File Writing: |===                 | (18/100)ISO File Writing: |===                 | (19/100)ISO File Writing: |====                | (20/100)ISO File Writing: |====                | (21/100)ISO File Writing: |====                | (22/100)ISO File Writing: |====                | (23/100)ISO File Writing: |====                | (24/100)ISO File Writing: |=====               | (25/100)ISO File Writing: |=====               | (26/100)ISO File Writing: |=====               | (27/100)ISO File Writing: |=====               | (28/100)ISO File Writing: |=====               | (29/100)ISO File Writing: |======              | (30/100)ISO File Writing: |======              | (31/100)ISO File Writing: |======              | (32/100)ISO File Writing: |======              | (33/100)ISO File Writing: |======              | (34/100)ISO File Writing: |=======             | (35/100)ISO File Writing: |=======             | (36/100)ISO File Writing: |=======             | (37/100)ISO File Writing: |=======             | (38/100)ISO File Writing: |=======             | (39/100)ISO File Writing: |========            | (40/100)ISO File Writing: |========            | (41/100)ISO File Writing: |========            | (42/100)ISO File Writing: |========            | (43/100)ISO File Writing: |========            | (44/100)ISO File Writing: |=========           | (45/100)ISO File Writing: |=========           | (46/100)ISO File Writing: |=========           | (47/100)ISO File Writing: |=========           | (48/100)ISO File Writing: |=========           | (49/100)ISO File Writing: |==========          | (50/100)ISO File Writing: |==========          | (51/100)ISO File Writing: |==========          | (52/100)ISO File Writing: |==========          | (53/100)ISO File Writing: |==========          | (54/100)ISO File Writing: |===========         | (55/100)ISO File Writing: |===========         | (56/100)ISO File Writing: |===========         | (57/100)ISO File Writing: |===========         | (58/100)ISO File Writing: |===========         | (59/100)ISO File Writing: |============        | (60/100)ISO File Writing: |============        | (61/100)ISO File Writing: |============        | (62/100)ISO File Writing: |============        | (63/100)ISO File Writing: |============        | (64/100)ISO File Writing: |=============       | (65/100)ISO File Writing: |=============       | (66/100)ISO File Writing: |=============       | (67/100)ISO File Writing: |=============       | (68/100)ISO File Writing: |=============       | (69/100)ISO File Writing: |==============      | (70/100)ISO File Writing: |==============      | (71/100)ISO File Writing: |==============      | (72/100)ISO File Writing: |==============      | (73/100)ISO File Writing: |==============      | (74/100)ISO File Writing: |===============     | (75/100)ISO File Writing: |===============     | (76/100)ISO File Writing: |===============     | (77/100)ISO File Writing: |===============     | (78/100)ISO File Writing: |===============     | (79/100)ISO File Writing: |================    | (80/100)ISO File Writing: |================    | (81/100)ISO File Writing: |================    | (82/100)ISO File Writing: |================    | (83/100)ISO File Writing: |================    | (84/100)ISO File Writing: |=================   | (85/100)ISO File Writing: |=================   | (86/100)ISO File Writing: |=================   | (87/100)ISO File Writing: |=================   | (88/100)ISO File Writing: |=================   | (89/100)ISO File Writing: |==================  | (90/100)ISO File Writing: |==================  | (91/100)ISO File Writing: |==================  | (92/100)ISO File Writing: |==================  | (93/100)ISO File Writing: |==================  | (94/100)ISO File Writing: |=================== | (95/100)ISO File Writing: |=================== | (96/100)ISO File Writing: |=================== | (97/100)ISO File Writing: |=================== | (98/100)ISO File Writing: |=================== | (99/100)ISO File Writing: |====================| (100/100)                                                         

 Conversion Status : Successful @ 2021-02-01 21:44:47 


=======High Resolution Conversion=======


 Sarting : Generating high resolution video @ 2021-02-01 21:44:47

 Converting Video HD File   

 Command : /bin/ffmpeg -i /var/www/vhosts/centx.app/httpdocs/files/conversion_queue/1612215824d2e0c.mp4 -vcodec libx264 -acodec libfdk_aac -s 1280x720 -preset slow -f mp4 -b:a 128000 -minrate 128000 -maxrate 128000 -ar 22050 /var/www/vhosts/centx.app/httpdocs/files/videos/2021/02/01//1612215824d2e0c-hd.mp4 > /var/www/vhosts/centx.app/httpdocs/files/temp/1612215824d2e0c.tmp 

 ffmpeg output : ffmpeg version 3.4.8 Copyright (c) 2000-2020 the FFmpeg developers
  built with gcc 4.8.5 (GCC) 20150623 (Red Hat 4.8.5-39)
  configuration: --prefix=/usr --bindir=/usr/bin --datadir=/usr/share/ffmpeg --docdir=/usr/share/doc/ffmpeg --incdir=/usr/include/ffmpeg --libdir=/usr/lib64 --mandir=/usr/share/man --arch=x86_64 --optflags='-O2 -g -pipe -Wall -Wp,-D_FORTIFY_SOURCE=2 -fexceptions -fstack-protector-strong --param=ssp-buffer-size=4 -grecord-gcc-switches -m64 -mtune=generic' --extra-ldflags='-Wl,-z,relro ' --extra-cflags=' ' --enable-libopencore-amrnb --enable-libopencore-amrwb --enable-libvo-amrwbenc --enable-version3 --enable-bzlib --disable-crystalhd --enable-fontconfig --enable-gcrypt --enable-gnutls --enable-ladspa --enable-libass --enable-libbluray --enable-libcdio --enable-libdrm --enable-indev=jack --enable-libfreetype --enable-libfribidi --enable-libgsm --enable-libmp3lame --enable-nvenc --enable-openal --enable-opencl --enable-opengl --enable-libopenjpeg --enable-libopus --disable-encoder=libopus --enable-libpulse --enable-librsvg --enable-libsoxr --enable-libspeex --enable-libtheora --enable-libvorbis --enable-libv4l2 --enable-libvidstab --enable-libvpx --enable-libx264 --enable-libx265 --enable-libxvid --enable-libzvbi --enable-avfilter --enable-avresample --enable-libmodplug --enable-postproc --enable-pthreads --disable-static --enable-shared --enable-gpl --disable-debug --disable-stripping --shlibdir=/usr/lib64 --enable-libmfx --enable-runtime-cpudetect
  libavutil      55. 78.100 / 55. 78.100
  libavcodec     57.107.100 / 57.107.100
  libavformat    57. 83.100 / 57. 83.100
  libavdevice    57. 10.100 / 57. 10.100
  libavfilter     6.107.100 /  6.107.100
  libavresample   3.  7.  0 /  3.  7.  0
  libswscale      4.  8.100 /  4.  8.100
  libswresample   2.  9.100 /  2.  9.100
  libpostproc    54.  7.100 / 54.  7.100
Input #0, mov,mp4,m4a,3gp,3g2,mj2, from '/var/www/vhosts/centx.app/httpdocs/files/conversion_queue/1612215824d2e0c.mp4':
  Metadata:
    major_brand     : mp42
    minor_version   : 0
    compatible_brands: mp42mp41isomavc1
    creation_time   : 2020-07-20T12:15:22.000000Z
  Duration: 00:00:44.63, start: 0.000000, bitrate: 2713 kb/s
    Stream #0:0(und): Video: h264 (High) (avc1 / 0x31637661), yuv420p(tv, bt709), 1280x720, 2710 kb/s, 23.98 fps, 23.98 tbr, 24k tbn, 48k tbc (default)
    Metadata:
      creation_time   : 2020-07-20T12:15:22.000000Z
      handler_name    : L-SMASH Video Handler
      encoder         : AVC Coding
Codec AVOption b (set bitrate (in bits/s)) specified for output file #0 (/var/www/vhosts/centx.app/httpdocs/files/videos/2021/02/01//1612215824d2e0c-hd.mp4) has not been used for any stream. The most likely reason is either wrong type (e.g. a video option with no video streams) or that it is a private option of some encoder which was not actually used for any stream.
Stream mapping:
  Stream #0:0 -> #0:0 (h264 (native) -> h264 (libx264))
Press [q] to stop, [?] for help
[libx264 @ 0x12d1d60] VBV maxrate specified, but no bufsize, ignored
[libx264 @ 0x12d1d60] using cpu capabilities: MMX2 SSE2Fast SSSE3 SSE4.2 AVX FMA3 AVX2 LZCNT BMI2
[libx264 @ 0x12d1d60] profile High, level 3.1
[libx264 @ 0x12d1d60] 264 - core 148 r2795 aaa9aa8 - H.264/MPEG-4 AVC codec - Copyleft 2003-2017 - http://www.videolan.org/x264.html - options: cabac=1 ref=5 deblock=1:0:0 analyse=0x3:0x113 me=hex subme=8 psy=1 psy_rd=1.00:0.00 mixed_ref=1 me_range=16 chroma_me=1 trellis=2 8x8dct=1 cqm=0 deadzone=21,11 fast_pskip=1 chroma_qp_offset=-2 threads=3 lookahead_threads=1 sliced_threads=0 nr=0 decimate=1 interlaced=0 bluray_compat=0 constrained_intra=0 bframes=3 b_pyramid=2 b_adapt=1 b_bias=0 direct=3 weightb=1 open_gop=0 weightp=2 keyint=250 keyint_min=23 scenecut=40 intra_refresh=0 rc_lookahead=50 rc=crf mbtree=1 crf=23.0 qcomp=0.60 qpmin=0 qpmax=69 qpstep=4 ip_ratio=1.40 aq=1:1.00
Output #0, mp4, to '/var/www/vhosts/centx.app/httpdocs/files/videos/2021/02/01//1612215824d2e0c-hd.mp4':
  Metadata:
    major_brand     : mp42
    minor_version   : 0
    compatible_brands: mp42mp41isomavc1
    encoder         : Lavf57.83.100
    Stream #0:0(und): Video: h264 (libx264) (avc1 / 0x31637661), yuv420p, 1280x720, q=-1--1, 23.98 fps, 24k tbn, 23.98 tbc (default)
    Metadata:
      creation_time   : 2020-07-20T12:15:22.000000Z
      handler_name    : L-SMASH Video Handler
      encoder         : Lavc57.107.100 libx264
    Side data:
      cpb: bitrate max/min/avg: 128000/0/0 buffer size: 0 vbv_delay: -1
frame=   57 fps=0.0 q=0.0 size=       0kB time=00:00:00.00 bitrate=N/A speed=   0x    frame=   61 fps= 55 q=28.0 size=       0kB time=00:00:00.04 bitrate=   9.2kbits/s speed=0.0374x    frame=   68 fps= 41 q=28.0 size=     256kB time=00:00:00.33 bitrate=6285.5kbits/s speed=0.202x    frame=   76 fps= 34 q=28.0 size=     256kB time=00:00:00.66 bitrate=3143.0kbits/s speed=0.296x    frame=   84 fps= 29 q=28.0 size=     256kB time=00:00:01.00 bitrate=2095.4kbits/s speed=0.345x    frame=   93 fps= 27 q=28.0 size=     512kB time=00:00:01.37 bitrate=3047.5kbits/s speed=0.403x    frame=   99 fps= 25 q=28.0 size=     512kB time=00:00:01.62 bitrate=2578.7kbits/s speed=0.415x    frame=  107 fps= 24 q=28.0 size=     512kB time=00:00:01.96 bitrate=2139.8kbits/s speed=0.444x    frame=  113 fps= 23 q=28.0 size=     512kB time=00:00:02.21 bitrate=1897.5kbits/s speed=0.448x    frame=  120 fps= 22 q=28.0 size=     768kB time=00:00:02.50 bitrate=2514.2kbits/s speed=0.455x    frame=  128 fps= 21 q=28.0 size=     768kB time=00:00:02.83 bitrate=2218.4kbits/s speed=0.464x    frame=  135 fps= 20 q=28.0 size=     768kB time=00:00:03.12 bitrate=2011.4kbits/s speed=0.472x    frame=  140 fps= 20 q=28.0 size=     768kB time=00:00:03.33 bitrate=1885.6kbits/s speed=0.466x    frame=  148 fps= 19 q=28.0 size=    1024kB time=00:00:03.67 bitrate=2285.6kbits/s speed=0.475x    frame=  156 fps= 19 q=28.0 size=    1024kB time=00:00:04.00 bitrate=2095.1kbits/s speed=0.483x    frame=  163 fps= 19 q=28.0 size=    1024kB time=00:00:04.29 bitrate=1952.7kbits/s speed=0.489x    frame=  172 fps= 18 q=28.0 size=    1024kB time=00:00:04.67 bitrate=1795.8kbits/s speed=0.495x    frame=  180 fps= 18 q=28.0 size=    1280kB time=00:00:05.00 bitrate=2095.1kbits/s speed=0.497x    frame=  188 fps= 18 q=28.0 size=    1280kB time=00:00:05.33 bitrate=1964.2kbits/s speed=0.501x    frame=  196 fps= 17 q=28.0 size=    1280kB time=00:00:05.67 bitrate=1848.6kbits/s speed=0.505x    frame=  202 fps= 17 q=28.0 size=    1536kB time=00:00:05.92 bitrate=2124.6kbits/s speed=0.503x    frame=  209 fps= 17 q=28.0 size=    1536kB time=00:00:06.21 bitrate=2024.8kbits/s speed=0.505x    frame=  215 fps= 17 q=28.0 size=    1536kB time=00:00:06.46 bitrate=1946.4kbits/s speed=0.501x    frame=  223 fps= 16 q=28.0 size=    1536kB time=00:00:06.79 bitrate=1850.9kbits/s speed=0.502x    frame=  231 fps= 16 q=28.0 size=    1536kB time=00:00:07.13 bitrate=1764.3kbits/s speed=0.506x    frame=  238 fps= 16 q=28.0 size=    1792kB time=00:00:07.42 bitrate=1977.4kbits/s speed=0.506x    frame=  248 fps= 16 q=28.0 size=    1792kB time=00:00:07.84 bitrate=1872.2kbits/s speed=0.513x    frame=  256 fps= 16 q=28.0 size=    1792kB time=00:00:08.17 bitrate=1795.8kbits/s speed=0.513x    frame=  264 fps= 16 q=28.0 size=    1792kB time=00:00:08.50 bitrate=1725.4kbits/s speed=0.514x    frame=  272 fps= 16 q=28.0 size=    2048kB time=00:00:08.84 bitrate=1897.4kbits/s speed=0.512x    frame=  280 fps= 16 q=28.0 size=    2048kB time=00:00:09.17 bitrate=1828.4kbits/s speed=0.516x    frame=  287 fps= 16 q=28.0 size=    2048kB time=00:00:09.46 bitrate=1772.1kbits/s speed=0.517x    frame=  294 fps= 16 q=28.0 size=    2048kB time=00:00:09.75 bitrate=1719.1kbits/s speed=0.518x    frame=  303 fps= 16 q=28.0 size=    2048kB time=00:00:10.13 bitrate=1655.4kbits/s speed=0.523x    frame=  309 fps= 15 q=28.0 size=    2304kB time=00:00:10.38 bitrate=1817.4kbits/s speed=0.517x    frame=  317 fps= 15 q=28.0 size=    2304kB time=00:00:10.71 bitrate=1760.9kbits/s speed=0.519x    frame=  325 fps= 15 q=28.0 size=    2560kB time=00:00:11.05 bitrate=1897.4kbits/s speed=0.523x    frame=  332 fps= 15 q=28.0 size=    2560kB time=00:00:11.34 bitrate=1848.6kbits/s speed=0.523x    frame=  339 fps= 15 q=28.0 size=    2560kB time=00:00:11.63 bitrate=1802.2kbits/s speed=0.524x    frame=  347 fps= 15 q=28.0 size=    2560kB time=00:00:11.97 bitrate=1752.0kbits/s speed=0.522x    frame=  354 fps= 15 q=28.0 size=    2816kB time=00:00:12.26 bitrate=1881.3kbits/s speed=0.523x    frame=  362 fps= 15 q=28.0 size=    2816kB time=00:00:12.59 bitrate=1831.5kbits/s speed=0.523x    frame=  370 fps= 15 q=28.0 size=    2816kB time=00:00:12.92 bitrate=1784.2kbits/s speed=0.525x    frame=  378 fps= 15 q=28.0 size=    2816kB time=00:00:13.26 bitrate=1739.3kbits/s speed=0.527x    frame=  386 fps= 15 q=28.0 size=    2816kB time=00:00:13.59 bitrate=1696.6kbits/s speed=0.528x    frame=  395 fps= 15 q=28.0 size=    2816kB time=00:00:13.97 bitrate=1651.1kbits/s speed=0.53x    frame=  403 fps= 15 q=28.0 size=    3072kB time=00:00:14.30 bitrate=1759.1kbits/s speed=0.532x    frame=  411 fps= 15 q=28.0 size=    3072kB time=00:00:14.63 bitrate=1719.0kbits/s speed=0.531x    frame=  419 fps= 15 q=28.0 size=    3072kB time=00:00:14.97 bitrate=1680.7kbits/s speed=0.532x    frame=  425 fps= 15 q=28.0 size=    3328kB time=00:00:15.22 bitrate=1790.9kbits/s speed=0.53x    frame=  432 fps= 15 q=28.0 size=    3328kB time=00:00:15.51 bitrate=1757.2kbits/s speed=0.53x    frame=  440 fps= 15 q=28.0 size=    3328kB time=00:00:15.84 bitrate=1720.2kbits/s speed=0.53x    frame=  448 fps= 15 q=28.0 size=    3584kB time=00:00:16.18 bitrate=1814.3kbits/s speed=0.531x    frame=  455 fps= 15 q=28.0 size=    3584kB time=00:00:16.47 bitrate=1782.1kbits/s speed=0.531x    frame=  463 fps= 15 q=28.0 size=    3584kB time=00:00:16.80 bitrate=1746.8kbits/s speed=0.533x    frame=  471 fps= 15 q=28.0 size=    3584kB time=00:00:17.14 bitrate=1712.8kbits/s speed=0.534x    frame=  481 fps= 15 q=28.0 size=    3840kB time=00:00:17.55 bitrate=1791.5kbits/s speed=0.537x    frame=  491 fps= 15 q=28.0 size=    3840kB time=00:00:17.97 bitrate=1749.9kbits/s speed=0.537x    frame=  499 fps= 15 q=28.0 size=    3840kB time=00:00:18.31 bitrate=1718.1kbits/s speed=0.539x    frame=  507 fps= 15 q=28.0 size=    3840kB time=00:00:18.64 bitrate=1687.3kbits/s speed=0.539x    frame=  515 fps= 15 q=28.0 size=    4096kB time=00:00:18.97 bitrate=1768.2kbits/s speed=0.539x    frame=  523 fps= 15 q=28.0 size=    4096kB time=00:00:19.31 bitrate=1737.6kbits/s speed=0.541x    frame=  531 fps= 15 q=28.0 size=    4096kB time=00:00:19.64 bitrate=1708.1kbits/s speed=0.542x    frame=  539 fps= 15 q=28.0 size=    4096kB time=00:00:19.97 bitrate=1679.6kbits/s speed=0.543x    frame=  546 fps= 15 q=28.0 size=    4352kB time=00:00:20.27 bitrate=1758.8kbits/s speed=0.543x    frame=  554 fps= 15 q=28.0 size=    4352kB time=00:00:20.60 bitrate=1730.3kbits/s speed=0.545x    frame=  559 fps= 15 q=28.0 size=    4608kB time=00:00:20.81 bitrate=1813.8kbits/s speed=0.542x    frame=  567 fps= 15 q=28.0 size=    4608kB time=00:00:21.14 bitrate=1785.2kbits/s speed=0.543x    frame=  575 fps= 15 q=28.0 size=    4608kB time=00:00:21.47 bitrate=1757.4kbits/s speed=0.543x    frame=  583 fps= 15 q=28.0 size=    4864kB time=00:00:21.81 bitrate=1826.7kbits/s speed=0.543x    frame=  591 fps= 15 q=28.0 size=    4864kB time=00:00:22.14 bitrate=1799.2kbits/s speed=0.544x    frame=  598 fps= 15 q=28.0 size=    4864kB time=00:00:22.43 bitrate=1775.7kbits/s speed=0.544x    frame=  606 fps= 14 q=28.0 size=    4864kB time=00:00:22.77 bitrate=1749.7kbits/s speed=0.545x    frame=  615 fps= 15 q=28.0 size=    5120kB time=00:00:23.14 bitrate=1812.0kbits/s speed=0.546x    frame=  623 fps= 15 q=28.0 size=    5120kB time=00:00:23.48 bitrate=1786.2kbits/s speed=0.547x    frame=  630 fps= 14 q=28.0 size=    5120kB time=00:00:23.77 bitrate=1764.3kbits/s speed=0.547x    frame=  636 fps= 14 q=28.0 size=    5120kB time=00:00:24.02 bitrate=1745.9kbits/s speed=0.546x    frame=  642 fps= 14 q=28.0 size=    5376kB time=00:00:24.27 bitrate=1814.3kbits/s speed=0.545x    frame=  650 fps= 14 q=28.0 size=    5376kB time=00:00:24.60 bitrate=1789.7kbits/s speed=0.545x    frame=  658 fps= 14 q=28.0 size=    5376kB time=00:00:24.94 bitrate=1765.7kbits/s speed=0.544x    frame=  666 fps= 14 q=28.0 size=    5632kB time=00:00:25.27 bitrate=1825.4kbits/s speed=0.544x    frame=  674 fps= 14 q=28.0 size=    5632kB time=00:00:25.60 bitrate=1801.6kbits/s speed=0.544x    frame=  682 fps= 14 q=28.0 size=    5632kB time=00:00:25.94 bitrate=1778.5kbits/s speed=0.544x    frame=  690 fps= 14 q=28.0 size=    5632kB time=00:00:26.27 bitrate=1755.9kbits/s speed=0.544x    frame=  698 fps= 14 q=28.0 size=    5632kB time=00:00:26.60 bitrate=1733.9kbits/s speed=0.544x    frame=  707 fps= 14 q=28.0 size=    5888kB time=00:00:26.98 bitrate=1787.4kbits/s speed=0.544x    frame=  714 fps= 14 q=28.0 size=    5888kB time=00:00:27.27 bitrate=1768.3kbits/s speed=0.544x    frame=  722 fps= 14 q=28.0 size=    5888kB time=00:00:27.61 bitrate=1746.9kbits/s speed=0.544x    frame=  730 fps= 14 q=28.0 size=    5888kB time=00:00:27.94 bitrate=1726.1kbits/s speed=0.544x    frame=  738 fps= 14 q=28.0 size=    6144kB time=00:00:28.27 bitrate=1779.9kbits/s speed=0.544x    frame=  746 fps= 14 q=28.0 size=    6144kB time=00:00:28.61 bitrate=1759.1kbits/s speed=0.544x    frame=  754 fps= 14 q=28.0 size=    6144kB time=00:00:28.94 bitrate=1738.8kbits/s speed=0.544x    frame=  763 fps= 14 q=28.0 size=    6144kB time=00:00:29.32 bitrate=1716.6kbits/s speed=0.545x    frame=  772 fps= 14 q=28.0 size=    6400kB time=00:00:29.69 bitrate=1765.5kbits/s speed=0.546x    frame=  777 fps= 14 q=28.0 size=    6400kB time=00:00:29.90 bitrate=1753.2kbits/s speed=0.545x    frame=  784 fps= 14 q=28.0 size=    6400kB time=00:00:30.19 bitrate=1736.2kbits/s speed=0.545x    frame=  792 fps= 14 q=28.0 size=    6400kB time=00:00:30.53 bitrate=1717.3kbits/s speed=0.545x    frame=  800 fps= 14 q=28.0 size=    6656kB time=00:00:30.86 bitrate=1766.7kbits/s speed=0.545x    frame=  809 fps= 14 q=28.0 size=    6912kB time=00:00:31.23 bitrate=1812.6kbits/s speed=0.543x    frame=  817 fps= 14 q=28.0 size=    6912kB time=00:00:31.57 bitrate=1793.4kbits/s speed=0.544x    frame=  826 fps= 14 q=28.0 size=    6912kB time=00:00:31.94 bitrate=1772.3kbits/s speed=0.544x    frame=  834 fps= 14 q=28.0 size=    6912kB time=00:00:32.28 bitrate=1754.0kbits/s speed=0.545x    frame=  842 fps= 14 q=28.0 size=    7168kB time=00:00:32.61 bitrate=1800.4kbits/s speed=0.545x    frame=  851 fps= 14 q=28.0 size=    7168kB time=00:00:32.99 bitrate=1779.9kbits/s speed=0.545x    frame=  859 fps= 14 q=28.0 size=    7168kB time=00:00:33.32 bitrate=1762.1kbits/s speed=0.545x    frame=  866 fps= 14 q=28.0 size=    7424kB time=00:00:33.61 bitrate=1809.1kbits/s speed=0.545x    frame=  873 fps= 14 q=28.0 size=    7424kB time=00:00:33.90 bitrate=1793.6kbits/s speed=0.545x    frame=  879 fps= 14 q=28.0 size=    7424kB time=00:00:34.15 bitrate=1780.4kbits/s speed=0.543x    frame=  885 fps= 14 q=28.0 size=    7680kB time=00:00:34.40 bitrate=1828.4kbits/s speed=0.543x    frame=  891 fps= 14 q=28.0 size=    7680kB time=00:00:34.65 bitrate=1815.2kbits/s speed=0.542x    frame=  897 fps= 14 q=28.0 size=    7680kB time=00:00:34.90 bitrate=1802.2kbits/s speed=0.542x    frame=  903 fps= 14 q=28.0 size=    7680kB time=00:00:35.16 bitrate=1789.4kbits/s speed=0.541x    frame=  911 fps= 14 q=28.0 size=    7936kB time=00:00:35.49 bitrate=1831.6kbits/s speed=0.541x    frame=  919 fps= 14 q=28.0 size=    7936kB time=00:00:35.82 bitrate=1814.6kbits/s speed=0.542x    frame=  927 fps= 14 q=28.0 size=    7936kB time=00:00:36.16 bitrate=1797.8kbits/s speed=0.542x    frame=  932 fps= 14 q=28.0 size=    8192kB time=00:00:36.36 bitrate=1845.2kbits/s speed=0.541x    frame=  940 fps= 14 q=28.0 size=    8192kB time=00:00:36.70 bitrate=1828.4kbits/s speed=0.541x    frame=  948 fps= 14 q=28.0 size=    8192kB time=00:00:37.03 bitrate=1811.9kbits/s speed=0.542x    frame=  956 fps= 14 q=28.0 size=    8192kB time=00:00:37.37 bitrate=1795.8kbits/s speed=0.543x    frame=  963 fps= 14 q=28.0 size=    8448kB time=00:00:37.66 bitrate=1837.5kbits/s speed=0.543x    frame=  971 fps= 14 q=28.0 size=    8448kB time=00:00:37.99 bitrate=1821.4kbits/s speed=0.543x    frame=  981 fps= 14 q=28.0 size=    8448kB time=00:00:38.41 bitrate=1801.6kbits/s speed=0.544x    frame=  989 fps= 14 q=28.0 size=    8448kB time=00:00:38.74 bitrate=1786.1kbits/s speed=0.544x    frame=  997 fps= 14 q=28.0 size=    8704kB time=00:00:39.08 bitrate=1824.5kbits/s speed=0.544x    frame= 1006 fps= 14 q=28.0 size=    8704kB time=00:00:39.45 bitrate=1807.2kbits/s speed=0.545x    frame= 1014 fps= 14 q=28.0 size=    8704kB time=00:00:39.78 bitrate=1792.0kbits/s speed=0.545x    frame= 1022 fps= 14 q=28.0 size=    8704kB time=00:00:40.12 bitrate=1777.1kbits/s speed=0.545x    frame= 1030 fps= 14 q=28.0 size=    8704kB time=00:00:40.45 bitrate=1762.4kbits/s speed=0.546x    frame= 1038 fps= 14 q=28.0 size=    8960kB time=00:00:40.79 bitrate=1799.4kbits/s speed=0.547x    frame= 1046 fps= 14 q=28.0 size=    8960kB time=00:00:41.12 bitrate=1784.8kbits/s speed=0.547x    frame= 1054 fps= 14 q=28.0 size=    8960kB time=00:00:41.45 bitrate=1770.5kbits/s speed=0.548x    frame= 1059 fps= 14 q=28.0 size=    9216kB time=00:00:41.66 bitrate=1811.9kbits/s speed=0.547x    frame= 1068 fps= 14 q=28.0 size=    9216kB time=00:00:42.04 bitrate=1795.8kbits/s speed=0.548x    frame= 1070 fps= 13 q=-1.0 Lsize=    9674kB time=00:00:44.50 bitrate=1780.7kbits/s speed=0.557x    
video:9661kB audio:0kB subtitle:0kB other streams:0kB global headers:0kB muxing overhead: 0.137419%
[libx264 @ 0x12d1d60] frame I:5     Avg QP:18.26  size:192362
[libx264 @ 0x12d1d60] frame P:388   Avg QP:20.80  size: 19640
[libx264 @ 0x12d1d60] frame B:677   Avg QP:26.00  size:  1935
[libx264 @ 0x12d1d60] consecutive B-frames:  2.7% 36.6%  6.4% 54.2%
[libx264 @ 0x12d1d60] mb I  I16..4:  2.2% 72.5% 25.3%
[libx264 @ 0x12d1d60] mb P  I16..4:  0.2%  0.8%  0.1%  P16..4: 51.1% 13.0% 10.8%  0.0%  0.0%    skip:24.0%
[libx264 @ 0x12d1d60] mb B  I16..4:  0.0%  0.1%  0.0%  B16..8: 26.3%  1.1%  0.4%  direct: 0.8%  skip:71.4%  L0:34.3% L1:62.5% BI: 3.2%
[libx264 @ 0x12d1d60] 8x8 transform intra:74.3% inter:61.1%
[libx264 @ 0x12d1d60] direct mvs  spatial:99.7% temporal:0.3%
[libx264 @ 0x12d1d60] coded y,uvDC,uvAC intra: 82.9% 77.6% 48.2% inter: 13.0% 14.2% 0.8%
[libx264 @ 0x12d1d60] i16 v,h,dc,p:  8% 17% 13% 62%
[libx264 @ 0x12d1d60] i8 v,h,dc,ddl,ddr,vr,hd,vl,hu:  8% 12%  9%  7% 13% 12% 15% 10% 15%
[libx264 @ 0x12d1d60] i4 v,h,dc,ddl,ddr,vr,hd,vl,hu:  8% 11%  9%  9% 13% 11% 14% 10% 16%
[libx264 @ 0x12d1d60] i8c dc,h,v,p: 47% 29% 14% 10%
[libx264 @ 0x12d1d60] Weighted P-Frames: Y:3.4% UV:1.8%
[libx264 @ 0x12d1d60] ref P L0: 65.0% 20.1% 10.1%  2.6%  2.1%  0.1%  0.0%
[libx264 @ 0x12d1d60] ref B L0: 89.3%  7.1%  2.7%  0.9%
[libx264 @ 0x12d1d60] ref B L1: 95.7%  4.3%
[libx264 @ 0x12d1d60] kb/s:1773.19
 

 Sarting : MP4Box Conversion for HD 

 MP4Box Command : /usr/bin/MP4Box -inter 0.5 /var/www/vhosts/centx.app/httpdocs/files/videos/2021/02/01//1612215824d2e0c-hd.mp4  -tmp /var/www/vhosts/centx.app/httpdocs/files/temp 

 output : Saving /var/www/vhosts/centx.app/httpdocs/files/videos/2021/02/01//1612215824d2e0c-hd.mp4: 0.001 secs Interleaving
ISO File Writing: |                    | (01/100)ISO File Writing: |                    | (02/100)ISO File Writing: |                    | (03/100)ISO File Writing: |                    | (04/100)ISO File Writing: |=                   | (05/100)ISO File Writing: |=                   | (06/100)ISO File Writing: |=                   | (07/100)ISO File Writing: |=                   | (08/100)ISO File Writing: |=                   | (09/100)ISO File Writing: |==                  | (10/100)ISO File Writing: |==                  | (11/100)ISO File Writing: |==                  | (12/100)ISO File Writing: |==                  | (13/100)ISO File Writing: |==                  | (14/100)ISO File Writing: |===                 | (15/100)ISO File Writing: |===                 | (16/100)ISO File Writing: |===                 | (17/100)ISO File Writing: |===                 | (18/100)ISO File Writing: |===                 | (19/100)ISO File Writing: |====                | (20/100)ISO File Writing: |====                | (21/100)ISO File Writing: |====                | (22/100)ISO File Writing: |====                | (23/100)ISO File Writing: |====                | (24/100)ISO File Writing: |=====               | (25/100)ISO File Writing: |=====               | (26/100)ISO File Writing: |=====               | (27/100)ISO File Writing: |=====               | (28/100)ISO File Writing: |=====               | (29/100)ISO File Writing: |======              | (30/100)ISO File Writing: |======              | (31/100)ISO File Writing: |======              | (32/100)ISO File Writing: |======              | (33/100)ISO File Writing: |======              | (34/100)ISO File Writing: |=======             | (35/100)ISO File Writing: |=======             | (36/100)ISO File Writing: |=======             | (37/100)ISO File Writing: |=======             | (38/100)ISO File Writing: |=======             | (39/100)ISO File Writing: |========            | (40/100)ISO File Writing: |========            | (41/100)ISO File Writing: |========            | (42/100)ISO File Writing: |========            | (43/100)ISO File Writing: |========            | (44/100)ISO File Writing: |=========           | (45/100)ISO File Writing: |=========           | (46/100)ISO File Writing: |=========           | (47/100)ISO File Writing: |=========           | (48/100)ISO File Writing: |=========           | (49/100)ISO File Writing: |==========          | (50/100)ISO File Writing: |==========          | (51/100)ISO File Writing: |==========          | (52/100)ISO File Writing: |==========          | (53/100)ISO File Writing: |==========          | (54/100)ISO File Writing: |===========         | (55/100)ISO File Writing: |===========         | (56/100)ISO File Writing: |===========         | (57/100)ISO File Writing: |===========         | (58/100)ISO File Writing: |===========         | (59/100)ISO File Writing: |============        | (60/100)ISO File Writing: |============        | (61/100)ISO File Writing: |============        | (62/100)ISO File Writing: |============        | (63/100)ISO File Writing: |============        | (64/100)ISO File Writing: |=============       | (65/100)ISO File Writing: |=============       | (66/100)ISO File Writing: |=============       | (67/100)ISO File Writing: |=============       | (68/100)ISO File Writing: |=============       | (69/100)ISO File Writing: |==============      | (70/100)ISO File Writing: |==============      | (71/100)ISO File Writing: |==============      | (72/100)ISO File Writing: |==============      | (73/100)ISO File Writing: |==============      | (74/100)ISO File Writing: |===============     | (75/100)ISO File Writing: |===============     | (76/100)ISO File Writing: |===============     | (77/100)ISO File Writing: |===============     | (78/100)ISO File Writing: |===============     | (79/100)ISO File Writing: |================    | (80/100)ISO File Writing: |================    | (81/100)ISO File Writing: |================    | (82/100)ISO File Writing: |================    | (83/100)ISO File Writing: |================    | (84/100)ISO File Writing: |=================   | (85/100)ISO File Writing: |=================   | (86/100)ISO File Writing: |=================   | (87/100)ISO File Writing: |=================   | (88/100)ISO File Writing: |=================   | (89/100)ISO File Writing: |==================  | (90/100)ISO File Writing: |==================  | (91/100)ISO File Writing: |==================  | (92/100)ISO File Writing: |==================  | (93/100)ISO File Writing: |==================  | (94/100)ISO File Writing: |=================== | (95/100)ISO File Writing: |=================== | (96/100)ISO File Writing: |=================== | (97/100)ISO File Writing: |=================== | (98/100)ISO File Writing: |=================== | (99/100)ISO File Writing: |====================| (100/100)                                                         

 Conversion Status : Successful @ 2021-02-01 21:46:07


OutPut Deatils
--------------
		<strong>format</strong> : mov,mp4,m4a,3gp,3g2,mj2
<strong>duration</strong> : 44.63
<strong>size</strong> : 9906109
<strong>bitrate</strong> : 1775765
<strong>video_width</strong> : 1280
<strong>video_height</strong> : 720
<strong>video_wh_ratio</strong> : 1.7777777777778
<strong>video_codec</strong> : h264
<strong>video_rate</strong> : 23.976023976024
<strong>video_bitrate</strong> : 1773309
<strong>video_color</strong> : N/A
<strong>audio_codec</strong> : 
<strong>audio_bitrate</strong> : 0
<strong>audio_rate</strong> : 0
<strong>audio_channels</strong> : 0
<strong>path</strong> : /var/www/vhosts/centx.app/httpdocs/files/videos/2021/02/01//1612215824d2e0c-hd.mp4
<strong>rotation</strong> : 0


Conversion Completed___ Output File/var/www/vhosts/centx.app/httpdocs/files/videos/2021/02/01//1612215824d2e0c-hd.mp4
---------------------------------------------------------------------------------------------------------------------
		

Time Took : 137.641 seconds

conversion_status : completed 
